<svg version="1.1" id="Layer_1" xmlns="http://www.w3.org/2000/svg" xmlns:xlink="http://www.w3.org/1999/xlink" x="0px" y="0px"
	 width="100%" viewBox="0 0 1024 1024" enable-background="new 0 0 1024 1024" xml:space="preserve">
<path fill="#000000" opacity="1.000000" stroke="none" 
	d="
M218.866913,431.000061 
	C218.882645,380.342468 218.918823,330.184906 218.889038,280.027344 
	C218.882874,269.647186 220.595840,260.165985 229.757645,253.480667 
	C235.772949,249.091293 242.523331,248.080338 249.622437,248.077942 
	C292.782104,248.063370 335.941803,248.066696 379.101471,248.061264 
	C508.250031,248.045029 637.398560,248.025742 766.547119,248.016525 
	C772.043457,248.016129 777.567078,247.855698 782.979797,249.031311 
	C796.274414,251.918823 804.045593,262.365265 804.051514,277.306671 
	C804.067444,317.299774 804.069702,357.292877 804.066772,397.285980 
	C804.063293,444.111786 804.050415,490.937561 804.036743,537.763367 
	C804.034851,544.249817 803.003540,545.233521 796.507446,545.172363 
	C788.845276,545.100220 781.182739,545.028442 773.520386,545.034729 
	C771.562744,545.036316 769.163757,544.845459 769.268494,547.870850 
	C769.365173,550.661255 771.538391,550.837036 773.614014,550.770935 
	C781.593933,550.516479 789.604492,551.606018 797.559021,550.188171 
	C801.780884,549.435669 804.001343,551.323059 804.006348,555.552368 
	C804.027954,573.882141 804.547241,592.235229 803.793884,610.534912 
	C803.104858,627.271851 790.558716,637.532410 772.355286,636.636047 
	C760.853394,636.069641 749.392090,636.377563 737.913025,636.365845 
	C681.758728,636.308350 625.604370,636.287415 569.450073,636.268005 
	C568.177368,636.267517 566.904602,636.438354 565.147034,636.830078 
	C569.015259,638.234375 568.960938,640.036743 567.019897,642.911133 
	C564.815979,646.174622 565.895447,650.115967 566.481018,653.650818 
	C569.201599,670.073853 572.091003,686.477112 573.736145,703.044495 
	C574.242371,708.141724 576.455872,709.153320 581.077454,709.045288 
	C593.233887,708.760986 605.424866,708.491699 617.558960,709.090454 
	C632.518127,709.828552 644.000122,716.649292 649.999084,730.940002 
	C651.528687,734.583801 652.458374,738.552551 653.134094,742.463501 
	C654.035950,747.683289 652.715698,749.103333 647.336792,749.130066 
	C630.339905,749.214539 613.342529,749.201599 596.345337,749.214722 
	C536.357056,749.260864 476.368805,749.315430 416.380524,749.334412 
	C403.550598,749.338440 390.720215,749.246643 377.890839,749.117920 
	C372.456268,749.063416 371.353943,747.746460 371.909454,742.512207 
	C374.044800,722.392212 387.919281,709.438599 408.183838,709.015320 
	C420.342896,708.761353 432.513336,708.830750 444.674438,709.022217 
	C448.715179,709.085876 450.397125,708.111267 450.961090,703.643005 
	C453.482544,683.665588 456.477478,663.747375 459.369293,643.817627 
	C460.261871,637.666138 459.798279,637.172974 453.296448,636.918945 
	C420.653137,635.643616 387.998901,636.376038 355.349274,636.299744 
	C325.025940,636.228943 294.702454,636.223022 264.379303,636.107422 
	C258.058594,636.083313 251.825439,637.098694 245.443390,636.757568 
	C228.839767,635.870178 218.809570,621.925232 218.779541,607.324158 
	C218.745270,590.660461 218.984451,573.995667 218.879456,557.332825 
	C218.850220,552.695312 220.358841,550.372864 225.225571,550.839478 
	C226.541092,550.965576 227.889282,550.816956 229.217728,550.725464 
	C230.823120,550.615112 231.577499,549.693909 231.561234,548.093628 
	C231.546158,546.610352 231.061417,545.485657 229.448395,545.171631 
	C229.122101,545.108093 228.788010,545.085571 228.460464,545.027405 
	C218.793732,543.311584 218.809280,543.311279 218.815765,533.479248 
	C218.838181,499.486206 218.848831,465.493134 218.866913,431.000061 
M527.499939,540.616333 
	C616.140869,540.664062 704.781860,540.689148 793.422607,540.827271 
	C797.786743,540.834106 800.005005,540.233215 799.996765,534.967102 
	C799.862488,448.825867 799.928711,362.684326 799.908081,276.542847 
	C799.907410,273.897644 799.801819,271.165588 799.157898,268.622711 
	C796.574280,258.420502 787.958374,252.248322 776.328186,252.243622 
	C698.517395,252.212265 620.706604,252.221069 542.895813,252.219482 
	C444.257721,252.217453 345.619598,252.217255 246.981506,252.218201 
	C235.469833,252.218323 227.567886,257.377808 224.080399,267.208710 
	C222.537567,271.557739 222.982742,276.105743 222.982483,280.581360 
	C222.977524,364.723114 223.012329,448.864838 223.026627,533.006592 
	C223.027939,540.702148 222.989456,540.714233 230.586121,540.711914 
	C329.224030,540.681580 427.861969,540.647583 527.499939,540.616333 
M648.500000,632.044434 
	C690.655701,632.024719 732.811523,632.044250 774.967102,631.965698 
	C791.434875,631.935059 799.923767,623.344055 799.924133,606.988708 
	C799.924438,592.825806 799.892944,578.662903 799.882751,564.500000 
	C799.875732,554.837708 799.881348,554.883545 790.095093,554.891724 
	C710.449646,554.958130 630.804138,555.037476 551.158691,555.052002 
	C443.854004,555.071533 336.549286,555.063599 229.244751,554.937683 
	C224.435486,554.932007 222.898483,556.407776 222.969849,561.205078 
	C223.197830,576.530579 223.464355,591.879517 222.864594,607.186096 
	C222.319061,621.108704 232.547287,632.237793 248.106308,632.198975 
	C381.236847,631.866455 514.368591,632.030090 648.500000,632.044434 
M592.500000,713.073608 
	C531.365967,713.065674 470.231781,713.109375 409.097931,712.987061 
	C401.103302,712.971069 393.885956,714.800171 387.649475,719.743469 
	C379.611908,726.114441 376.161346,734.688110 375.782501,744.612793 
	C467.204163,744.612793 558.039124,744.612793 648.880554,744.612793 
	C648.602539,727.548828 635.341248,713.688477 618.984131,713.140747 
	C610.498169,712.856567 601.995239,713.077271 592.500000,713.073608 
M564.634705,666.761963 
	C563.484314,659.199951 562.232544,651.651306 561.229309,644.069763 
	C560.777100,640.652527 559.359619,639.289673 555.746094,639.304688 
	C526.597412,639.426147 497.447845,639.418518 468.299011,639.316223 
	C464.668152,639.303467 463.537415,640.659363 463.065125,644.185303 
	C460.592590,662.645874 457.820587,681.066406 455.151215,699.500549 
	C454.229065,705.868774 454.227142,705.917908 460.584717,705.920959 
	C495.397186,705.937744 530.209656,705.934387 565.022095,705.908447 
	C566.635986,705.907227 568.374695,706.329712 570.234314,704.742004 
	C568.415588,692.559753 566.555786,680.102478 564.634705,666.761963 
M333.799622,547.541443 
	C333.457123,544.980835 331.468231,545.050903 329.641663,545.034119 
	C323.817474,544.980652 317.991791,544.935120 312.168549,545.018494 
	C310.304352,545.045166 307.666748,544.577393 307.795074,547.633240 
	C307.897400,550.069763 309.849182,550.805725 312.093842,550.800903 
	C318.084991,550.787903 324.076202,550.810120 330.067322,550.794800 
	C331.811707,550.790344 333.460938,550.563110 333.799622,547.541443 
M272.460876,550.814453 
	C274.775940,550.805115 277.091156,550.806335 279.406067,550.782898 
	C281.205170,550.764709 282.741699,550.372253 282.828339,548.133484 
	C282.909729,546.030273 281.711761,545.076904 279.786957,545.062378 
	C273.339264,545.013489 266.890869,545.017944 260.443054,545.059082 
	C258.591949,545.070862 257.200653,545.776367 257.260925,547.968811 
	C257.320221,550.126221 258.686859,550.768311 260.562286,550.779358 
	C264.200165,550.800903 267.838104,550.804199 272.460876,550.814453 
M647.674194,545.047791 
	C647.010925,545.047852 646.346313,545.019775 645.684692,545.053162 
	C643.533997,545.161743 641.009827,544.917908 641.194214,548.187744 
	C641.358643,551.101013 643.727051,550.794983 645.673035,550.806519 
	C651.476074,550.840698 657.279602,550.799072 663.082947,550.778381 
	C665.192261,550.770874 666.691223,549.981750 666.604980,547.608337 
	C666.522095,545.329102 664.793518,545.092529 663.058594,545.080078 
	C658.250244,545.045410 653.441650,545.061768 647.674194,545.047791 
M371.537872,550.731567 
	C374.857880,550.745178 378.177856,550.770935 381.497864,550.767517 
	C383.360107,550.765625 384.784332,550.202820 384.800293,547.982483 
	C384.816101,545.786682 383.421143,545.102600 381.561951,545.097534 
	C375.420685,545.080750 369.279083,545.102356 363.138062,545.158630 
	C361.464783,545.174011 360.206818,545.830505 360.261688,547.794800 
	C360.312653,549.617310 361.386139,550.528198 363.099884,550.604553 
	C365.585785,550.715454 368.077606,550.694031 371.537872,550.731567 
M698.826904,550.789368 
	C703.801819,550.799438 708.776855,550.802063 713.751709,550.823120 
	C715.755127,550.831543 717.447510,550.487671 717.477173,547.946594 
	C717.507568,545.339355 715.679565,545.073547 713.756958,545.056335 
	C708.450806,545.008789 703.142822,544.945679 697.838501,545.045044 
	C695.829895,545.082703 692.994629,544.459839 692.885559,547.682251 
	C692.766296,551.208557 695.667175,550.668030 698.826904,550.789368 
M423.515015,545.141357 
	C420.700867,545.195984 417.885803,545.223450 415.072998,545.318176 
	C413.887573,545.358093 412.621521,545.560059 412.485779,547.055542 
	C412.340912,548.651550 413.382751,549.600464 414.826935,549.731323 
	C420.754852,550.268677 426.676300,551.061829 432.654724,550.582947 
	C434.300659,550.451172 435.573914,549.866821 435.688385,547.986511 
	C435.830322,545.654846 434.198486,545.277222 432.434570,545.221924 
	C429.787750,545.138916 427.137665,545.157959 423.515015,545.141357 
M591.656921,548.416504 
	C591.969666,549.270447 592.579712,549.847229 593.477844,549.866821 
	C599.770020,550.004028 606.062927,550.107117 612.355957,550.201050 
	C613.737000,550.221680 614.529846,549.530090 614.574463,548.105408 
	C614.628418,546.381042 613.657715,545.719360 612.072510,545.814453 
	C606.599121,546.142761 601.156311,545.823792 595.704346,545.301941 
	C593.949524,545.133911 591.907471,545.248901 591.656921,548.416504 
M499.517914,546.527100 
	C499.371552,546.605591 499.208496,546.664124 499.083496,546.768250 
	C498.959412,546.871643 498.773132,547.123718 498.785217,547.135498 
	C501.439941,549.730103 504.741638,550.290588 508.273956,550.147339 
	C509.883728,550.081970 511.890106,550.599548 511.953735,548.042053 
	C512.024963,545.178284 509.709839,545.536621 508.012604,545.586548 
	C505.365112,545.664246 502.727753,546.087036 499.517914,546.527100 
M760.788086,546.306091 
	C757.637207,545.949951 754.478394,545.485779 750.198425,547.051880 
	C753.603210,547.978638 755.831604,548.877441 758.125000,549.096863 
	C759.443665,549.223083 761.563171,549.105957 760.788086,546.306091 
z"/>
<path fill="#000000" opacity="1.000000" stroke="none" 
	d="
M641.954041,289.585571 
	C676.077759,289.577759 709.711426,289.476746 743.343994,289.627869 
	C752.485413,289.668945 757.108154,294.541962 757.118530,303.750549 
	C757.194702,371.714539 757.212830,439.678680 757.144958,507.642670 
	C757.135559,517.022156 751.840332,522.137878 742.406433,522.145691 
	C670.611023,522.205200 598.815674,522.213623 527.020264,522.173828 
	C518.588196,522.169128 513.672791,517.496033 512.976379,509.098663 
	C512.701782,505.787567 512.835022,502.440063 512.835388,499.109131 
	C512.842590,435.142944 512.853149,371.176727 512.887573,307.210541 
	C512.888916,304.721619 512.865601,302.183014 513.317139,299.753662 
	C514.490601,293.440369 518.676575,289.861298 525.124207,289.666351 
	C545.588806,289.047668 566.063904,289.601776 586.523682,289.356903 
	C604.846985,289.137665 623.151062,289.502411 641.954041,289.585571 
M753.038635,428.500000 
	C753.220459,405.685608 753.462036,382.871521 753.565308,360.056763 
	C753.648254,341.737030 753.558411,323.416565 753.555603,305.096405 
	C753.554260,296.633148 750.233521,293.225159 741.852539,293.225159 
	C670.860474,293.225189 599.868408,293.231293 528.876343,293.247803 
	C519.171387,293.250031 516.999023,295.498810 517.002502,305.455994 
	C517.012207,333.452667 517.041443,361.449310 517.053345,389.445984 
	C517.069763,428.274841 517.090637,467.103699 517.071106,505.932556 
	C517.068848,510.405945 517.232727,514.741516 521.895020,517.105225 
	C524.367798,518.358948 527.113892,518.013489 529.763916,518.014648 
	C599.755981,518.044250 669.748047,518.064636 739.740112,518.061890 
	C750.963562,518.061462 753.062256,515.930176 753.072449,504.491455 
	C753.094849,479.494324 753.052673,454.497162 753.038635,428.500000 
z"/>
<path fill="#000000" opacity="1.000000" stroke="none" 
	d="
M342.702881,310.596924 
	C381.346954,291.807770 422.617981,296.965607 453.977020,325.765961 
	C478.565338,348.347961 488.387878,376.980499 483.826569,410.251007 
	C478.030609,452.527313 442.777039,487.352997 397.666473,492.914825 
	C349.118652,498.900482 298.754578,460.536591 291.546722,412.286896 
	C285.124664,369.297577 305.635437,330.471130 342.702881,310.596924 
M416.427460,308.137085 
	C367.854065,291.532990 313.873108,319.891418 298.430573,368.394073 
	C283.080139,416.607574 309.748810,468.389099 358.713959,484.651917 
	C406.476196,500.515137 459.967072,473.684357 475.958130,425.842682 
	C492.480774,376.410645 466.957733,325.383698 416.427460,308.137085 
z"/>
<path fill="#000000" opacity="1.000000" stroke="none" 
	d="
M515.421753,575.936890 
	C524.553650,578.814514 529.944702,585.327209 530.017212,593.156311 
	C530.084045,600.374451 524.488953,607.541016 516.792847,610.042542 
	C509.859650,612.296082 503.856934,610.203003 499.091492,605.244934 
	C494.283722,600.242859 492.712463,594.028076 495.222809,587.292603 
	C497.687134,580.680542 502.495514,576.717224 509.547028,575.766968 
	C511.330231,575.526672 513.183289,575.805054 515.421753,575.936890 
M512.406006,579.374390 
	C509.991699,579.215271 507.841492,580.079041 505.753143,581.132385 
	C499.257111,584.408813 496.449951,592.328125 499.423157,598.939941 
	C502.456360,605.685181 510.053436,608.700867 516.946411,605.895935 
	C522.735168,603.540344 526.152466,598.224854 525.724792,592.241455 
	C525.258179,585.712830 521.075867,581.431519 512.406006,579.374390 
z"/>
<path fill="#000000" opacity="1.000000" stroke="none" 
	d="
M647.000000,416.986572 
	C672.654297,416.984894 697.808716,416.948608 722.962891,417.002625 
	C730.210083,417.018188 733.178772,420.424072 732.280762,427.232941 
	C731.857849,430.439514 730.071472,432.376862 726.954285,433.021576 
	C725.826843,433.254761 724.633972,433.223328 723.470825,433.224152 
	C664.832886,433.265686 606.194946,433.275513 547.557129,433.373749 
	C542.970337,433.381439 539.718506,432.085907 538.813416,427.191528 
	C537.638489,420.838470 540.485657,417.111847 546.970398,417.040710 
	C559.796021,416.899963 572.623962,416.975677 585.450989,416.962616 
	C587.428650,416.960602 589.406250,416.962372 592.751770,416.962372 
	C585.635254,410.971527 589.633301,405.638123 591.751465,400.282745 
	C595.670532,390.373962 599.596436,380.467682 603.576599,370.583374 
	C604.568542,368.119904 605.116150,366.003357 602.643494,363.895782 
	C600.548340,362.109894 600.332214,359.569489 601.383179,357.003998 
	C607.063293,343.138275 612.698303,329.253723 618.460449,315.422211 
	C620.138489,311.394348 623.284058,310.057159 627.429443,311.657440 
	C631.852478,313.364929 633.491760,317.120361 631.616211,321.831207 
	C626.504456,334.670105 621.295471,347.470947 616.018677,360.242920 
	C615.069885,362.539398 614.237183,364.330566 616.793457,366.289307 
	C619.222168,368.150299 619.093567,371.001434 618.063232,373.636749 
	C612.553589,387.728851 606.977600,401.795013 600.984253,416.986328 
	C616.173340,416.986328 631.336670,416.986328 647.000000,416.986572 
M683.500000,421.130341 
	C639.385132,421.170380 595.270142,421.182159 551.155518,421.307343 
	C547.843445,421.316742 542.746216,419.608582 542.694214,425.333588 
	C542.643250,430.951843 547.668945,429.600983 551.056030,429.604919 
	C605.991455,429.668640 660.927002,429.648315 715.862488,429.637238 
	C718.857971,429.636627 721.860779,429.662994 724.846558,429.467773 
	C727.093628,429.320862 728.565125,428.082855 728.622681,425.642670 
	C728.682312,423.114685 727.571655,421.474670 724.946533,421.196716 
	C723.627380,421.057037 722.287598,421.083984 720.957153,421.084991 
	C708.804749,421.093994 696.652405,421.113892 683.500000,421.130341 
M627.433899,322.044464 
	C628.163147,319.574371 629.952820,316.679230 625.986267,315.477661 
	C622.666443,314.471954 621.848816,317.235809 620.885315,319.600555 
	C615.931641,331.757965 610.946472,343.902527 605.953918,356.044006 
	C604.921570,358.554565 603.462036,361.213409 607.286133,362.583862 
	C610.715759,363.812958 611.485718,361.105377 612.445984,358.742706 
	C617.325989,346.735443 622.235413,334.740143 627.433899,322.044464 
M603.068604,400.614502 
	C606.739746,391.348114 610.401917,382.078094 614.088867,372.817993 
	C614.942505,370.674042 614.791260,368.796692 612.499268,367.796021 
	C610.123169,366.758606 608.803162,368.052856 607.947266,370.221985 
	C603.068726,382.585266 598.167786,394.939819 593.233765,407.281067 
	C592.445190,409.253448 592.491455,410.766022 594.630432,411.835480 
	C596.873657,412.957062 598.192932,411.793945 599.041626,410.019196 
	C600.401489,407.175385 601.528442,404.220154 603.068604,400.614502 
z"/>
<path fill="#000000" opacity="1.000000" stroke="none" 
	d="
M723.720703,477.716125 
	C730.520630,478.253357 732.525024,480.392242 732.375488,486.456940 
	C732.244019,491.785828 730.218811,493.794281 724.008118,493.933441 
	C715.353516,494.127380 706.691956,494.021820 698.033386,494.028473 
	C648.246094,494.066681 598.458862,494.090515 548.671570,494.154907 
	C545.030151,494.159637 541.622864,493.966339 539.786316,490.104614 
	C536.744141,483.707825 540.318054,477.763031 547.417603,477.726044 
	C563.735474,477.641052 580.053894,477.673096 596.372131,477.675903 
	C638.666443,477.683197 680.960754,477.700378 723.720703,477.716125 
M583.500061,481.415833 
	C576.506836,481.410858 569.513611,481.403625 562.520386,481.401611 
	C557.525452,481.400146 552.530212,481.377167 547.535645,481.419128 
	C544.708008,481.442871 543.302368,482.916260 543.228577,485.777588 
	C543.149475,488.839600 544.821350,489.912018 547.589417,489.900146 
	C548.588257,489.895874 549.587158,489.926941 550.586060,489.927032 
	C607.363770,489.932800 664.141541,489.938049 720.919250,489.936096 
	C722.416504,489.936035 723.916138,489.896790 725.410400,489.805084 
	C727.635925,489.668396 728.643555,488.392059 728.679932,486.210938 
	C728.716064,484.041473 728.240479,482.086487 725.838562,481.584198 
	C724.235229,481.248932 722.527588,481.359985 720.866577,481.360413 
	C675.411072,481.372131 629.955627,481.395386 583.500061,481.415833 
z"/>
<path fill="#000000" opacity="1.000000" stroke="none" 
	d="
M606.000000,462.952026 
	C586.678345,462.941467 567.856140,463.017822 549.035400,462.881195 
	C540.720886,462.820831 537.672485,459.531952 538.812988,452.549530 
	C539.385864,449.041931 541.212097,446.732880 544.924316,446.351593 
	C546.576660,446.181854 548.244995,446.096741 549.906189,446.095459 
	C578.721680,446.073059 607.537170,446.061493 636.352661,446.078827 
	C638.510315,446.080139 640.693909,446.150085 642.820007,446.480438 
	C647.487183,447.205536 649.144653,450.576111 649.096008,454.757385 
	C649.046692,459.000122 647.145630,462.384918 642.463257,462.687469 
	C636.988953,463.041168 631.481445,462.906494 625.988098,462.934631 
	C619.492249,462.967896 612.996033,462.948761 606.000000,462.952026 
M630.484009,450.238892 
	C614.497681,450.251862 598.511292,450.265076 582.524963,450.277771 
	C571.034790,450.286926 559.544373,450.251404 548.054626,450.327240 
	C543.807739,450.355255 541.758484,453.308380 543.377380,456.747742 
	C544.605774,459.357361 547.010437,458.700134 549.065918,458.702972 
	C578.707153,458.744049 608.348450,458.735443 637.989746,458.735657 
	C638.822144,458.735657 639.654541,458.700134 640.486938,458.683746 
	C643.325562,458.627930 644.769897,457.173096 644.835510,454.342957 
	C644.904846,451.356384 643.296204,450.171906 640.468018,450.212524 
	C637.471191,450.255615 634.473450,450.232910 630.484009,450.238892 
z"/>
<path fill="#000000" opacity="1.000000" stroke="none" 
	d="
M638.772827,405.883240 
	C635.914734,406.955383 633.442871,407.954834 630.910645,408.765381 
	C626.900146,410.049011 623.974670,408.623077 622.556946,404.721863 
	C621.129456,400.793701 621.983093,397.408203 626.046936,395.545563 
	C629.191895,394.104065 632.470398,392.954132 636.767578,391.246124 
	C633.152893,389.737427 630.454895,388.657257 627.794495,387.491211 
	C622.643921,385.233765 620.962219,381.847778 622.672302,377.307770 
	C624.204956,373.238739 627.128662,372.309967 632.600891,374.334229 
	C641.179749,377.507690 649.721741,380.780731 658.291138,383.980072 
	C661.747253,385.270386 663.903687,387.576874 663.955750,391.368286 
	C664.008545,395.212891 661.905579,397.344482 658.298157,398.583466 
	C651.852112,400.797241 645.514771,403.327698 638.772827,405.883240 
M645.185791,392.423828 
	C639.761047,394.521454 634.318604,396.574951 628.920410,398.738861 
	C626.815491,399.582672 625.631531,401.215271 626.590576,403.501312 
	C627.593262,405.891327 629.511169,405.073639 631.270203,404.427704 
	C639.546021,401.389069 647.822327,398.351593 656.099792,395.317444 
	C658.019409,394.613770 659.904236,393.923431 659.837952,391.323975 
	C659.773682,388.807587 657.949646,388.028259 656.037354,387.293945 
	C648.117798,384.252899 640.205139,381.193939 632.275085,378.180634 
	C630.278137,377.421814 627.887207,376.173706 626.639587,378.954346 
	C625.205933,382.149567 627.710510,383.444580 630.142883,384.377472 
	C634.335144,385.985443 638.614746,387.371765 642.770264,389.065521 
	C644.021912,389.575684 646.510498,389.325256 645.185791,392.423828 
z"/>
<path fill="#000000" opacity="1.000000" stroke="none" 
	d="
M575.414551,389.450470 
	C573.472656,390.381409 571.479431,390.354645 569.954590,392.141235 
	C572.377747,394.062592 575.301636,394.656799 578.005310,395.719971 
	C582.986267,397.678650 584.589294,401.317230 582.635010,406.066345 
	C580.935364,410.196594 578.345764,411.027832 573.244812,409.073883 
	C564.695312,405.798950 556.169983,402.459015 547.586304,399.276398 
	C544.300659,398.058167 542.101868,396.139954 541.962524,392.478516 
	C541.814880,388.598236 543.929138,386.334167 547.409241,385.026886 
	C555.825134,381.865448 564.245544,378.713379 572.614685,375.431335 
	C576.544678,373.890167 580.097961,373.193054 582.305603,377.917053 
	C584.459900,382.526917 583.025635,386.061279 578.090271,388.427216 
	C577.342529,388.785675 576.542603,389.035248 575.414551,389.450470 
M546.307922,391.745575 
	C546.172974,393.181824 546.470398,394.568604 547.887878,395.113647 
	C557.054749,398.638702 566.242554,402.110504 575.455750,405.512665 
	C577.000183,406.082977 578.475647,405.633057 579.160034,403.913208 
	C579.927673,401.984253 579.105225,400.624939 577.336487,399.889832 
	C573.645691,398.355957 569.872009,397.017731 566.207275,395.426758 
	C563.901672,394.425842 560.984253,394.435150 559.418213,391.975494 
	C560.559509,390.116760 562.335510,390.033905 563.848389,389.470703 
	C568.063049,387.901886 572.291748,386.370270 576.496765,384.775970 
	C578.663025,383.954651 579.848511,382.479156 578.828247,380.113434 
	C577.805420,377.741791 576.020264,378.411926 574.195862,379.113983 
	C566.268921,382.164185 558.321411,385.160858 550.381226,388.176697 
	C548.815125,388.771545 547.233521,389.344604 546.307922,391.745575 
z"/>
<path fill="#000000" opacity="1.000000" stroke="none" 
	d="
M586.379761,355.715088 
	C577.774780,352.453461 569.534302,349.306580 561.261230,346.248169 
	C557.555542,344.878296 554.830811,342.896851 554.729309,338.462952 
	C554.623291,333.827545 557.685852,332.220917 561.323486,330.871796 
	C569.593811,327.804474 577.802002,324.569031 586.078247,321.518127 
	C591.308716,319.589996 594.327393,320.762909 595.836304,325.027679 
	C597.473206,329.654053 595.848694,332.826233 590.919434,334.738831 
	C588.041321,335.855621 584.882202,336.363159 582.148132,338.458527 
	C584.903503,340.746002 588.110901,341.235748 590.955872,342.499023 
	C595.476196,344.506256 597.293396,347.822632 595.888794,351.992554 
	C594.324463,356.636597 591.013489,357.480286 586.379761,355.715088 
M569.276306,345.107239 
	C575.205078,347.320282 581.121887,349.566071 587.069580,351.727020 
	C588.938660,352.406158 590.997559,353.303833 591.939880,350.359497 
	C592.790405,347.701874 591.086731,346.776825 589.089966,345.993652 
	C587.074768,345.203186 585.059021,344.411499 583.068176,343.562561 
	C579.505798,342.043457 575.498352,341.392059 572.576599,338.573151 
	C573.411804,336.446838 575.251099,336.305756 576.732971,335.725037 
	C581.228760,333.963287 585.784302,332.353638 590.276672,330.583435 
	C592.001282,329.903870 592.998901,328.562622 592.323547,326.616760 
	C591.664124,324.717010 590.260498,324.096832 588.349731,324.815704 
	C579.155151,328.274658 569.904968,331.596924 560.802307,335.283142 
	C557.541931,336.603455 557.516846,340.108917 560.636719,341.789825 
	C563.103271,343.118713 565.896301,343.841827 569.276306,345.107239 
z"/>
<path fill="#000000" opacity="1.000000" stroke="none" 
	d="
M647.734009,338.229645 
	C639.347168,334.735687 637.240479,331.627747 639.448303,326.386475 
	C641.255432,322.096558 643.921753,321.779999 652.418518,325.012146 
	C659.883118,327.851685 667.297363,330.823578 674.768982,333.644104 
	C678.197327,334.938324 680.440552,336.928162 680.450806,340.905151 
	C680.461060,344.898315 678.220276,346.853943 674.759460,348.117157 
	C666.321289,351.197113 657.957764,354.482422 649.509216,357.532867 
	C643.875549,359.566864 640.760315,358.422424 639.266357,354.132721 
	C637.703857,349.646210 639.506470,346.517670 644.989136,344.326447 
	C647.557617,343.299927 650.165039,342.370941 652.895874,341.344818 
	C651.635864,339.189667 649.582336,339.238800 647.734009,338.229645 
M649.460632,334.971436 
	C653.854248,336.862152 658.713684,337.826691 663.483643,341.436401 
	C656.902222,343.983124 651.352661,346.080780 645.846558,348.286926 
	C643.774780,349.117004 641.674194,350.242737 642.961792,353.052765 
	C644.122864,355.586700 646.218079,354.757721 648.114319,354.052277 
	C656.358826,350.985168 664.591614,347.886505 672.829712,344.802032 
	C674.733337,344.089233 676.655090,343.396088 676.635498,340.843140 
	C676.616028,338.316986 674.719788,337.610809 672.814880,336.873871 
	C665.540405,334.059631 658.347778,331.006012 650.964111,328.517761 
	C648.535645,327.699432 645.121948,323.558014 643.058533,328.516876 
	C640.946533,333.592712 646.371399,333.033539 649.460632,334.971436 
z"/>
<path fill="#000000" opacity="1.000000" stroke="none" 
	d="
M407.756531,440.099365 
	C413.135162,440.897034 418.063599,441.662506 422.999725,442.374634 
	C426.360138,442.859406 427.291473,444.620117 425.746704,447.591125 
	C420.435059,457.806702 414.905304,467.921478 405.776520,475.340363 
	C393.845856,485.036255 380.585846,484.845947 368.993256,474.910187 
	C360.358521,467.509613 354.408112,458.144745 349.742798,447.879089 
	C348.433380,444.997742 348.722168,443.242859 352.272766,442.548798 
	C362.433655,440.562561 372.675018,439.491364 383.018372,439.616425 
	C386.866180,439.662933 391.453888,444.766815 390.687683,448.457794 
	C389.803741,452.716187 391.281708,455.883484 393.754211,459.012482 
	C396.445435,462.418274 397.806580,465.525543 392.472870,468.122406 
	C389.074707,469.776917 389.636902,473.485840 390.740448,476.095276 
	C392.101624,479.314026 394.856934,477.166199 396.695465,476.194214 
	C402.026672,473.375671 406.678101,469.667450 410.065125,464.757141 
	C409.679688,462.779510 408.157867,462.176239 406.939575,461.436951 
	C400.232666,457.367096 399.316833,450.924469 399.823639,444.006592 
	C400.190948,438.993164 403.951141,439.748901 407.756531,440.099365 
M364.074890,463.423401 
	C369.378052,470.584808 375.651123,476.252289 384.925537,478.050537 
	C386.196198,471.938507 383.645599,465.464355 390.996460,462.379333 
	C387.240326,457.982513 385.311005,453.108490 385.437958,447.379303 
	C384.869385,450.138916 384.300812,452.898529 383.737610,455.632050 
	C381.303711,455.165405 380.975250,453.617218 380.384705,452.268005 
	C379.172852,449.499329 381.418915,447.263763 381.864716,444.256073 
	C372.368805,443.983154 363.305695,444.101410 354.173340,446.734375 
	C356.342041,453.372528 360.363892,457.892242 364.074890,463.423401 
M413.546631,449.584290 
	C413.517273,445.593628 411.373566,444.048096 407.551025,444.225189 
	C405.667419,444.312439 404.462219,444.749207 404.137146,446.926697 
	C403.337219,452.284973 405.044983,455.328217 410.320770,457.218262 
	C411.367188,454.853027 413.627960,453.076904 413.546631,449.584290 
z"/>
<path fill="#000000" opacity="1.000000" stroke="none" 
	d="
M414.532898,351.766052 
	C393.966980,354.290283 373.897949,353.896484 353.908112,350.442780 
	C348.200134,349.456604 347.654633,348.545166 350.149139,343.206787 
	C354.781830,333.292419 360.828613,324.332428 369.473938,317.459900 
	C382.181885,307.357880 395.397461,307.744781 407.465393,318.598969 
	C415.762085,326.061218 421.645752,335.317780 426.339294,345.380524 
	C427.665985,348.224884 426.994019,349.835480 423.847931,350.311920 
	C420.887085,350.760254 417.926880,351.212891 414.532898,351.766052 
M387.357941,348.693542 
	C388.011871,348.801331 388.679901,349.053375 389.317169,348.990997 
	C391.645264,348.763214 394.499969,350.024536 395.890625,346.923065 
	C397.290131,343.801727 395.205627,341.901642 393.265533,340.064301 
	C389.398193,336.401886 385.429169,332.832733 380.378876,330.841705 
	C377.450470,329.687256 376.121521,328.023010 377.236420,324.717621 
	C377.960175,322.571838 378.129639,320.237091 376.952026,317.422241 
	C365.383057,324.074951 358.867767,334.234924 353.429199,345.943146 
	C359.470459,347.647369 365.079559,348.086578 370.630859,348.573639 
	C375.272217,348.980865 381.348053,351.436066 381.312103,342.915894 
	C384.830658,343.578064 384.501434,347.089478 387.357941,348.693542 
M411.680237,331.306000 
	C411.201782,332.429718 412.611664,334.291809 410.530670,334.911041 
	C408.863739,333.455811 409.949188,331.926147 409.934113,330.524353 
	C409.864685,324.062073 402.145203,318.790497 396.792572,321.580383 
	C387.297668,326.529297 386.882812,326.304108 385.478119,315.525299 
	C385.444885,315.270233 385.059937,315.061005 384.534729,314.512634 
	C380.179291,316.928955 382.711578,321.410980 381.652832,324.683411 
	C380.899658,327.011444 383.482208,327.317535 385.022003,328.214539 
	C392.288177,332.447754 399.224335,337.028046 400.343964,346.429779 
	C400.624298,348.783752 402.262360,348.993317 403.976532,348.769928 
	C409.684601,348.025970 415.375336,347.149170 421.959930,346.194702 
	C418.709198,340.508209 416.970612,334.786438 411.680237,331.306000 
z"/>
<path fill="#000000" opacity="1.000000" stroke="none" 
	d="
M420.468384,356.475891 
	C422.359619,356.132324 423.863983,355.979828 425.304352,355.590454 
	C428.518097,354.721680 430.339569,355.857666 431.227600,359.069366 
	C433.940887,368.882904 435.941650,378.789917 436.393677,389.008270 
	C436.577484,393.163818 435.093201,394.482056 430.974884,394.452515 
	C410.481873,394.305298 389.987091,394.411133 369.492950,394.413971 
	C360.838104,394.415192 352.182343,394.304932 343.528809,394.402740 
	C340.034668,394.442169 338.620819,392.966064 339.011871,389.565063 
	C340.151306,379.654694 340.970917,369.707397 343.712433,360.034363 
	C344.760986,356.334778 346.398468,354.795837 350.463104,355.595764 
	C367.225800,358.894775 384.195770,359.510559 401.207886,358.658203 
	C407.508636,358.342499 413.772064,357.280853 420.468384,356.475891 
M348.415070,359.932983 
	C345.152496,368.217285 344.379913,376.995361 343.238861,385.709137 
	C342.700806,389.818115 344.573975,390.840149 348.364014,390.799622 
	C362.687866,390.646515 377.014343,390.755615 391.339691,390.720032 
	C397.315002,390.705200 400.841736,385.894653 399.250641,379.997131 
	C398.541534,377.368713 397.109406,375.115204 395.237061,373.172119 
	C392.466736,370.297119 389.602509,367.512634 386.830109,364.639618 
	C385.839813,363.613403 384.697754,363.071136 383.308533,363.014893 
	C371.834137,362.550415 360.472626,360.969360 348.415070,359.932983 
M403.847717,383.368927 
	C404.330994,385.829681 401.711182,387.492126 402.068451,389.843567 
	C410.551880,389.843567 418.946289,389.761292 427.337738,389.882690 
	C430.860809,389.933655 432.064178,388.379028 431.869904,385.031097 
	C431.433990,377.518524 429.972961,370.187408 428.262451,362.889099 
	C427.680389,360.405548 426.542206,359.349030 423.668243,359.849945 
	C416.132233,361.163361 408.523682,362.055481 400.960815,363.223907 
	C399.084991,363.513733 396.893982,363.445953 395.777161,365.783234 
	C398.886169,371.148804 403.540436,375.839233 403.847717,383.368927 
z"/>
<path fill="#000000" opacity="1.000000" stroke="none" 
	d="
M358.509155,435.565674 
	C345.250671,438.108307 345.211334,438.116699 342.536285,425.570892 
	C341.217926,419.388092 340.246338,413.153503 339.563812,406.851685 
	C339.039246,402.008514 340.561768,400.496216 345.485565,400.535095 
	C370.314117,400.731201 395.145294,400.612000 419.975494,400.558655 
	C423.801270,400.550446 427.625610,400.261017 431.452271,400.190552 
	C434.932373,400.126465 436.569000,401.664429 436.301514,405.390228 
	C435.606781,415.065460 433.799347,424.516266 431.202850,433.843536 
	C430.437073,436.594269 428.824615,437.667572 426.026794,437.117523 
	C403.760010,432.739838 381.392792,432.369720 358.509155,435.565674 
M361.847382,430.977570 
	C376.432465,429.943024 390.997681,427.999329 405.651764,429.884216 
	C411.584747,430.647369 417.514832,431.448120 423.424103,432.373199 
	C425.739227,432.735596 427.284637,432.397095 427.918182,429.832794 
	C429.863373,421.959839 432.210724,414.147522 430.899475,405.495911 
	C423.109131,404.441376 415.280823,405.355255 407.533722,404.442871 
	C399.470642,403.493256 391.496063,403.575806 386.863129,412.272858 
	C386.072723,413.756653 384.319214,414.026367 382.975586,412.815887 
	C381.416534,411.411316 382.517426,410.197388 383.572693,409.005829 
	C384.707825,407.724060 386.908783,407.315521 386.949463,404.856079 
	C372.566162,404.856079 358.269714,404.856079 343.345032,404.856079 
	C344.145050,410.493225 344.559509,415.614471 345.636414,420.592377 
	C348.976410,436.031219 346.878601,433.206390 361.847382,430.977570 
z"/>
<path fill="#000000" opacity="1.000000" stroke="none" 
	d="
M338.972900,356.793060 
	C335.753113,367.932159 334.104523,378.926300 333.418701,390.058960 
	C333.222321,393.246490 331.900330,394.433960 328.790497,394.394531 
	C320.980164,394.295441 313.166016,394.277191 305.356720,394.414612 
	C301.982483,394.473938 300.455811,393.297577 300.679016,389.779083 
	C301.613678,375.045715 306.028778,361.476227 313.962585,349.030701 
	C315.418610,346.746735 317.101013,346.013947 319.822021,346.984222 
	C324.976959,348.822327 330.249054,350.331543 335.469391,351.987030 
	C337.619873,352.669067 339.677246,353.445740 338.972900,356.793060 
M329.856354,383.569214 
	C330.537262,378.795135 331.278839,374.028717 331.881195,369.244751 
	C332.431000,364.877991 336.312469,359.829651 333.619812,356.528351 
	C331.179657,353.536652 325.607452,353.098785 321.414673,351.539032 
	C321.103088,351.423157 320.768372,351.366150 320.462616,351.238281 
	C318.572815,350.447937 317.238281,351.089233 316.346863,352.835846 
	C314.473511,356.506439 312.197815,359.995087 311.046326,363.786987 
	C313.077423,366.767883 317.334351,364.216858 318.920624,367.520386 
	C316.841309,369.825836 316.841309,369.825867 313.074615,370.309479 
	C308.038116,370.956146 306.707947,372.918793 308.300201,377.798004 
	C310.511078,384.572784 315.483429,388.496826 322.181030,390.176666 
	C328.393524,391.734802 329.466461,390.785889 329.856354,383.569214 
M310.824036,389.341797 
	C309.103729,387.464233 307.383392,385.586670 305.424103,383.448273 
	C305.435028,385.893219 304.332306,387.917358 305.305634,390.127869 
	C307.237000,390.854950 309.088684,390.821625 310.824036,389.341797 
z"/>
<path fill="#000000" opacity="1.000000" stroke="none" 
	d="
M470.326599,424.135315 
	C468.003845,431.184875 464.779572,437.351929 461.040710,443.283997 
	C459.350616,445.965454 457.445587,446.686096 454.357025,445.455292 
	C449.424133,443.489563 444.342651,441.881104 439.275757,440.273621 
	C436.525604,439.401154 435.561371,437.986328 436.442230,435.077759 
	C439.387054,425.354248 441.450592,415.445801 442.040894,405.274292 
	C442.242737,401.796417 444.000366,400.171875 447.484283,400.388519 
	C454.633240,400.833069 461.772888,400.599396 468.912506,400.120300 
	C473.340424,399.823120 475.324463,401.461792 474.499786,406.322388 
	C473.497009,412.232605 472.446167,418.095398 470.326599,424.135315 
M443.688385,423.036072 
	C442.704102,427.371338 441.719818,431.706573 440.696564,436.213379 
	C444.758118,437.747894 448.572327,438.851959 452.590576,438.946716 
	C458.788177,439.092865 461.306885,436.968597 462.621948,430.854248 
	C463.239349,427.983673 462.317261,425.236786 462.154022,422.430695 
	C461.935028,418.666138 461.075073,414.278198 465.969543,412.732117 
	C470.288574,411.367767 470.094025,408.301331 470.067474,404.412659 
	C463.045074,404.412659 456.264496,404.406403 449.483887,404.416138 
	C447.168274,404.419464 446.434387,405.795776 446.151855,407.914185 
	C445.513916,412.696930 444.669678,417.452179 443.688385,423.036072 
z"/>
<path fill="#000000" opacity="1.000000" stroke="none" 
	d="
M327.068848,400.583679 
	C331.742279,400.020142 333.265320,401.742798 333.571045,406.091248 
	C334.257812,415.858917 335.914276,425.531799 338.767914,434.932648 
	C339.775726,438.252777 338.787994,439.761932 335.478241,440.665466 
	C330.521332,442.018677 325.623077,443.657806 320.828461,445.508545 
	C317.794464,446.679688 315.878967,446.080322 314.130524,443.380859 
	C306.574554,431.715179 302.414490,418.899872 300.743134,405.177155 
	C300.265594,401.256226 302.419952,400.110413 305.692749,400.148132 
	C312.665070,400.228455 319.635986,400.429871 327.068848,400.583679 
M330.516510,413.856476 
	C330.307007,412.543854 329.824402,411.207306 329.936768,409.922852 
	C330.352539,405.169800 328.051117,403.901794 323.684967,404.211121 
	C319.218567,404.527527 314.712708,404.254272 310.225037,404.312012 
	C305.153717,404.377258 303.763519,406.700043 306.333740,411.214081 
	C307.271301,412.860718 308.050781,414.372864 308.012756,416.280212 
	C307.878113,423.034821 310.749817,428.892365 313.803009,434.610016 
	C316.182739,439.066498 320.593964,440.646210 325.349365,439.301025 
	C327.267365,438.758484 329.175568,438.137665 331.129669,437.776703 
	C334.108582,437.226471 334.776825,435.761383 334.098267,432.816040 
	C332.721161,426.838776 331.746552,420.768707 330.516510,413.856476 
z"/>
<path fill="#000000" opacity="1.000000" stroke="none" 
	d="
M440.281952,371.656830 
	C439.160034,366.873993 438.251251,362.478821 437.093323,358.150299 
	C436.247009,354.986603 437.017548,353.137268 440.336426,352.185791 
	C445.284454,350.767181 450.191376,349.168243 455.022552,347.392365 
	C458.130890,346.249756 459.878540,347.221222 461.598267,349.888763 
	C469.529327,362.190582 473.689301,375.664490 474.792450,390.189758 
	C475.026184,393.267517 473.783386,394.390778 470.827393,394.402283 
	C462.682953,394.433990 454.538330,394.560242 446.395050,394.715149 
	C443.015717,394.779419 442.145325,392.711792 442.069244,389.915009 
	C441.906433,383.928986 441.579651,377.961029 440.281952,371.656830 
M445.142975,374.473114 
	C445.523102,378.756744 447.099854,382.908752 446.406555,387.318024 
	C445.977295,390.047943 447.635071,390.757233 450.012909,390.725952 
	C454.999084,390.660309 459.968506,390.515350 464.954681,390.179962 
	C469.365570,389.883331 470.198730,387.936768 469.922302,384.139984 
	C469.268311,375.157562 466.070435,366.998199 462.239716,359.010803 
	C458.254822,350.701935 458.256622,350.702850 449.763062,353.368134 
	C447.700378,354.015442 445.640869,354.674530 443.566040,355.280792 
	C441.521851,355.878082 440.762787,357.429535 441.597931,359.120728 
	C443.871521,363.724915 443.688141,368.840210 445.142975,374.473114 
z"/>
<path fill="#000000" opacity="1.000000" stroke="none" 
	d="
M426.356750,458.375366 
	C428.221008,454.824005 429.999786,451.631775 431.527588,448.323639 
	C432.676331,445.836365 434.196960,444.648773 436.984222,445.602753 
	C441.529846,447.158600 446.122406,448.581055 450.642456,450.206360 
	C452.838135,450.995880 454.103851,452.382416 452.074066,454.661530 
	C441.682007,466.330322 428.965454,474.447235 414.187103,479.389954 
	C413.594696,479.588074 412.880524,479.498749 412.235809,479.427826 
	C411.960876,479.397583 411.718658,479.069977 410.773163,478.362122 
	C416.672333,472.365051 421.911194,465.884033 426.356750,458.375366 
M433.219177,454.799011 
	C432.356018,456.401733 431.495331,458.005829 430.628998,459.606842 
	C429.770935,461.192535 428.329865,462.994904 430.917786,464.137695 
	C433.106049,465.103943 434.826233,463.864288 435.727478,461.864563 
	C436.534973,460.072815 436.571564,457.810394 437.690125,456.307983 
	C439.973145,453.241516 438.575287,451.999451 435.656342,450.785187 
	C434.900116,451.986786 434.210999,453.081726 433.219177,454.799011 
z"/>
<path fill="#000000" opacity="1.000000" stroke="none" 
	d="
M441.678040,345.770233 
	C433.846558,348.052979 433.831696,348.060089 430.548920,341.211212 
	C426.425385,332.608246 421.418732,324.609314 414.758514,317.706299 
	C413.887970,316.803986 412.559174,316.067078 412.850861,314.330872 
	C414.339081,312.888550 415.904602,313.834045 417.362488,314.413177 
	C429.547760,319.253479 440.610168,325.888184 449.967987,335.163635 
	C455.073547,340.224243 454.804779,341.376495 448.208252,343.629791 
	C446.163483,344.328278 444.096863,344.962799 441.678040,345.770233 
M437.561066,342.338654 
	C438.363098,339.201660 440.721527,337.327118 443.510834,335.699219 
	C441.696136,333.047882 439.986786,331.015808 436.488556,330.755249 
	C436.828094,334.840210 430.694580,338.729126 437.561066,342.338654 
z"/>
<path fill="#000000" opacity="1.000000" stroke="none" 
	d="
M345.034546,472.069824 
	C336.164429,466.718658 328.098175,460.981750 321.296112,452.280060 
	C327.671570,448.723175 333.929871,446.880249 340.378754,445.583984 
	C341.885925,445.281006 342.821136,446.305878 343.408875,447.659821 
	C348.221191,458.745941 354.628448,468.788940 362.975067,477.567139 
	C363.137512,477.737976 362.995453,478.198334 362.995453,479.500916 
	C356.419495,478.414032 350.931488,475.205994 345.034546,472.069824 
M339.735138,450.344543 
	C335.417450,449.313416 332.975616,452.764221 329.594086,454.199768 
	C335.514709,462.171661 339.535217,464.357452 346.033264,462.696472 
	C344.056000,458.650879 342.135956,454.722351 339.735138,450.344543 
z"/>
<path fill="#000000" opacity="1.000000" stroke="none" 
	d="
M334.981476,326.928833 
	C343.654694,320.883179 352.297729,315.604889 362.380890,313.346313 
	C363.238525,315.320984 362.264587,316.140656 361.480621,316.939911 
	C354.065918,324.499451 348.454803,333.277924 344.249908,342.932465 
	C342.613586,346.689545 340.471924,347.997467 336.511658,346.483734 
	C332.489349,344.946320 328.331787,343.764465 324.241302,342.403351 
	C321.056915,341.343811 320.926392,339.753510 323.143219,337.346588 
	C326.650970,333.538025 330.790070,330.479553 334.981476,326.928833 
M348.326904,326.994812 
	C349.300781,325.520874 350.274689,324.046906 351.248566,322.572968 
	C342.249084,326.507019 334.013519,331.276642 327.483826,338.740387 
	C329.963623,340.842407 332.581665,340.915222 334.821747,341.897491 
	C338.322906,343.432709 340.244659,342.381104 341.763275,338.904785 
	C343.479156,334.976868 345.835907,331.328949 348.326904,326.994812 
z"/>
</svg>